<?xml version="1.0" standalone="no"?><svg xmlns="http://www.w3.org/2000/svg" viewBox="0 0 1440 320"><path fill="#416f95" fill-opacity="1" d="M0,32L14.1,69.3C28.2,107,56,181,85,181.3C112.9,181,141,107,169,112C197.6,117,226,203,254,202.7C282.4,203,311,117,339,85.3C367.1,53,395,75,424,96C451.8,117,480,139,508,144C536.5,149,565,139,593,128C621.2,117,649,107,678,106.7C705.9,107,734,117,762,149.3C790.6,181,819,235,847,224C875.3,213,904,139,932,128C960,117,988,171,1016,181.3C1044.7,192,1073,160,1101,133.3C1129.4,107,1158,85,1186,64C1214.1,43,1242,21,1271,37.3C1298.8,53,1327,107,1355,128C1383.5,149,1412,139,1426,133.3L1440,128L1440,320L1425.9,320C1411.8,320,1384,320,1355,320C1327.1,320,1299,320,1271,320C1242.4,320,1214,320,1186,320C1157.6,320,1129,320,1101,320C1072.9,320,1045,320,1016,320C988.2,320,960,320,932,320C903.5,320,875,320,847,320C818.8,320,791,320,762,320C734.1,320,706,320,678,320C649.4,320,621,320,593,320C564.7,320,536,320,508,320C480,320,452,320,424,320C395.3,320,367,320,339,320C310.6,320,282,320,254,320C225.9,320,198,320,169,320C141.2,320,113,320,85,320C56.5,320,28,320,14,320L0,320Z"></path></svg>