<?xml version="1.0" standalone="no"?><svg xmlns="http://www.w3.org/2000/svg" viewBox="0 0 1440 320"><path fill="#f4fafc" fill-opacity="1" d="M0,224L6.2,202.7C12.3,181,25,139,37,106.7C49.2,75,62,53,74,85.3C86.2,117,98,203,111,234.7C123.1,267,135,245,148,240C160,235,172,245,185,208C196.9,171,209,85,222,64C233.8,43,246,85,258,96C270.8,107,283,85,295,80C307.7,75,320,85,332,112C344.6,139,357,181,369,170.7C381.5,160,394,96,406,96C418.5,96,431,160,443,160C455.4,160,468,96,480,80C492.3,64,505,96,517,138.7C529.2,181,542,235,554,229.3C566.2,224,578,160,591,128C603.1,96,615,96,628,101.3C640,107,652,117,665,144C676.9,171,689,213,702,213.3C713.8,213,726,171,738,154.7C750.8,139,763,149,775,144C787.7,139,800,117,812,112C824.6,107,837,117,849,133.3C861.5,149,874,171,886,160C898.5,149,911,107,923,101.3C935.4,96,948,128,960,149.3C972.3,171,985,181,997,176C1009.2,171,1022,149,1034,133.3C1046.2,117,1058,107,1071,85.3C1083.1,64,1095,32,1108,64C1120,96,1132,192,1145,229.3C1156.9,267,1169,245,1182,197.3C1193.8,149,1206,75,1218,64C1230.8,53,1243,107,1255,149.3C1267.7,192,1280,224,1292,218.7C1304.6,213,1317,171,1329,165.3C1341.5,160,1354,192,1366,224C1378.5,256,1391,288,1403,282.7C1415.4,277,1428,235,1434,213.3L1440,192L1440,0L1433.8,0C1427.7,0,1415,0,1403,0C1390.8,0,1378,0,1366,0C1353.8,0,1342,0,1329,0C1316.9,0,1305,0,1292,0C1280,0,1268,0,1255,0C1243.1,0,1231,0,1218,0C1206.2,0,1194,0,1182,0C1169.2,0,1157,0,1145,0C1132.3,0,1120,0,1108,0C1095.4,0,1083,0,1071,0C1058.5,0,1046,0,1034,0C1021.5,0,1009,0,997,0C984.6,0,972,0,960,0C947.7,0,935,0,923,0C910.8,0,898,0,886,0C873.8,0,862,0,849,0C836.9,0,825,0,812,0C800,0,788,0,775,0C763.1,0,751,0,738,0C726.2,0,714,0,702,0C689.2,0,677,0,665,0C652.3,0,640,0,628,0C615.4,0,603,0,591,0C578.5,0,566,0,554,0C541.5,0,529,0,517,0C504.6,0,492,0,480,0C467.7,0,455,0,443,0C430.8,0,418,0,406,0C393.8,0,382,0,369,0C356.9,0,345,0,332,0C320,0,308,0,295,0C283.1,0,271,0,258,0C246.2,0,234,0,222,0C209.2,0,197,0,185,0C172.3,0,160,0,148,0C135.4,0,123,0,111,0C98.5,0,86,0,74,0C61.5,0,49,0,37,0C24.6,0,12,0,6,0L0,0Z"></path></svg>