<?xml version="1.0" standalone="no"?><svg xmlns="http://www.w3.org/2000/svg" viewBox="0 0 1440 320"><path fill="#396a71" fill-opacity="1" d="M0,96L16,101.3C32,107,64,117,96,128C128,139,160,149,192,133.3C224,117,256,75,288,69.3C320,64,352,96,384,101.3C416,107,448,85,480,64C512,43,544,21,576,53.3C608,85,640,171,672,202.7C704,235,736,213,768,170.7C800,128,832,64,864,37.3C896,11,928,21,960,48C992,75,1024,117,1056,160C1088,203,1120,245,1152,224C1184,203,1216,117,1248,106.7C1280,96,1312,160,1344,176C1376,192,1408,160,1424,144L1440,128L1440,320L1424,320C1408,320,1376,320,1344,320C1312,320,1280,320,1248,320C1216,320,1184,320,1152,320C1120,320,1088,320,1056,320C1024,320,992,320,960,320C928,320,896,320,864,320C832,320,800,320,768,320C736,320,704,320,672,320C640,320,608,320,576,320C544,320,512,320,480,320C448,320,416,320,384,320C352,320,320,320,288,320C256,320,224,320,192,320C160,320,128,320,96,320C64,320,32,320,16,320L0,320Z"></path></svg>