<?xml version="1.0" standalone="no"?><svg xmlns="http://www.w3.org/2000/svg" viewBox="0 0 1440 320"><path fill="#61a2b8" fill-opacity="1" d="M0,160L9.6,170.7C19.2,181,38,203,58,181.3C76.8,160,96,96,115,74.7C134.4,53,154,75,173,122.7C192,171,211,245,230,256C249.6,267,269,213,288,197.3C307.2,181,326,203,346,186.7C364.8,171,384,117,403,96C422.4,75,442,85,461,122.7C480,160,499,224,518,218.7C537.6,213,557,139,576,122.7C595.2,107,614,149,634,192C652.8,235,672,277,691,266.7C710.4,256,730,192,749,176C768,160,787,192,806,202.7C825.6,213,845,203,864,186.7C883.2,171,902,149,922,149.3C940.8,149,960,171,979,181.3C998.4,192,1018,192,1037,186.7C1056,181,1075,171,1094,186.7C1113.6,203,1133,245,1152,224C1171.2,203,1190,117,1210,112C1228.8,107,1248,181,1267,202.7C1286.4,224,1306,192,1325,165.3C1344,139,1363,117,1382,122.7C1401.6,128,1421,160,1430,176L1440,192L1440,0L1430.4,0C1420.8,0,1402,0,1382,0C1363.2,0,1344,0,1325,0C1305.6,0,1286,0,1267,0C1248,0,1229,0,1210,0C1190.4,0,1171,0,1152,0C1132.8,0,1114,0,1094,0C1075.2,0,1056,0,1037,0C1017.6,0,998,0,979,0C960,0,941,0,922,0C902.4,0,883,0,864,0C844.8,0,826,0,806,0C787.2,0,768,0,749,0C729.6,0,710,0,691,0C672,0,653,0,634,0C614.4,0,595,0,576,0C556.8,0,538,0,518,0C499.2,0,480,0,461,0C441.6,0,422,0,403,0C384,0,365,0,346,0C326.4,0,307,0,288,0C268.8,0,250,0,230,0C211.2,0,192,0,173,0C153.6,0,134,0,115,0C96,0,77,0,58,0C38.4,0,19,0,10,0L0,0Z"></path></svg>